# xmcd
#
# Track frame offsets:
#	150
#	23853
#	43120
#	60527
#	75675
#	89829
#	106004
#	123764
#	139749
#	154914
#	167835
#	184669
#	200549
#	217318
#	233975
#	248168
#
# Disc length: 3538 seconds
#
# Revision: 1
# Processed by: cddbd v1.5.2PL0 Copyright (c) Steve Scherf et al.
# Submitted via: audiograbber 1.83.01
#
DISCID=e10dd010
DTITLE=CLÁDIO RIOS - EU E VOCÊ
DYEAR=1900
DGENRE=FORRÓ
TTITLE0=EU E VOCÊ
TTITLE1=LONGE DE VOCÊ
TTITLE2=COMER MARIA
TTITLE3=PRINCESA
TTITLE4=CHUVA FINA É GAROA
TTITLE5=PERDÃO MEU FILHO
TTITLE6=AÍ SIM
TTITLE7=FILHO DA TERRA
TTITLE8=MEU CASTELO
TTITLE9=MORANDO NA SELVA
TTITLE10=5 LETRAS DE NEON
TTITLE11=É O BOI O CAVALO E O VAQUEIRO
TTITLE12=TÔ PAQUERANDO
TTITLE13=ACELERADOR DO AMOR
TTITLE14=VOCÊ É LOUCA
TTITLE15=CAPITAL DO AVESTRUZ
EXTD=
EXTT0=
EXTT1=
EXTT2=
EXTT3=
EXTT4=
EXTT5=
EXTT6=
EXTT7=
EXTT8=
EXTT9=
EXTT10=
EXTT11=
EXTT12=
EXTT13=
EXTT14=
EXTT15=
PLAYORDER=
